<svg xmlns="http://www.w3.org/2000/svg" xmlns:xlink="http://www.w3.org/1999/xlink" width="1024" zoomAndPan="magnify" viewBox="0 0 768 767.999994" height="1024" preserveAspectRatio="xMidYMid meet" version="1.0"><defs><filter x="0%" y="0%" width="100%" height="100%" id="c078be39c0"><feColorMatrix values="0 0 0 0 1 0 0 0 0 1 0 0 0 0 1 0 0 0 1 0" color-interpolation-filters="sRGB"/></filter><mask id="fb6a1e4358"><g filter="url(#c078be39c0)"><rect x="-76.8" width="921.6" fill="#000000" y="-76.799999" height="921.599993" fill-opacity="0.9"/></g></mask><clipPath id="81aa1393c6"><path d="M 3 0.121094 L 673 0.121094 L 673 568 L 3 568 Z M 3 0.121094 " clip-rule="nonzero"/></clipPath><clipPath id="68f778732c"><rect x="0" width="675" y="0" height="569"/></clipPath></defs><g mask="url(#fb6a1e4358)"><g transform="matrix(1, 0, 0, 1, 47, 129)"><g clip-path="url(#68f778732c)"><g clip-path="url(#81aa1393c6)"><path fill="#ffffff" d="M 585.515625 54.734375 C 596.132812 111.515625 525.964844 216.308594 545.8125 308.636719 C 565.664062 400.964844 675.535156 479.90625 672.304688 502.527344 C 669.070312 524.6875 553.199219 490.0625 471.488281 496.527344 C 389.777344 503.449219 342.230469 551.921875 278.523438 564.386719 C 214.816406 576.390625 134.027344 552.382812 76.785156 494.679688 C 19.539062 436.972656 -14.621094 346.03125 13.078125 279.554688 C 41.238281 212.617188 131.257812 170.605469 204.660156 124.902344 C 278.523438 79.664062 335.304688 30.726562 409.628906 10.417969 C 483.953125 -9.894531 574.898438 -1.585938 585.515625 54.734375 Z M 585.515625 54.734375 " fill-opacity="1" fill-rule="nonzero"/></g></g></g></g></svg>